<?xml version="1.0" encoding="UTF-8" standalone="no"?>
<!DOCTYPE svg PUBLIC "-//W3C//DTD SVG 1.1//EN"
 "http://www.w3.org/Graphics/SVG/1.1/DTD/svg11.dtd">
<!-- Generated by graphviz version 2.43.0 (0)
 -->
<!-- Title: G Pages: 1 -->
<svg width="963pt" height="404pt"
 viewBox="0.00 0.00 962.79 404.00" xmlns="http://www.w3.org/2000/svg" xmlns:xlink="http://www.w3.org/1999/xlink">
<g id="graph0" class="graph" transform="scale(1 1) rotate(0) translate(4 400)">
<title>G</title>
<polygon fill="white" stroke="transparent" points="-4,4 -4,-400 958.79,-400 958.79,4 -4,4"/>
<!-- p0_n0 -->
<g id="node1" class="node">
<title>p0_n0</title>
<ellipse fill="none" stroke="black" cx="735.05" cy="-378" rx="38.19" ry="18"/>
<text text-anchor="middle" x="735.05" y="-374.3" font-family="Times,serif" font-size="14.00">p0_n0</text>
</g>
<!-- p1_n1 -->
<g id="node2" class="node">
<title>p1_n1</title>
<ellipse fill="none" stroke="black" cx="550.05" cy="-306" rx="38.19" ry="18"/>
<text text-anchor="middle" x="550.05" y="-302.3" font-family="Times,serif" font-size="14.00">p1_n1</text>
</g>
<!-- p1_n1&#45;&gt;p0_n0 -->
<g id="edge1" class="edge">
<title>p1_n1&#45;&gt;p0_n0</title>
<path fill="none" stroke="black" d="M578.95,-317.94C610.63,-329.92 661.59,-349.2 696.61,-362.46"/>
<polygon fill="black" stroke="black" points="695.45,-365.76 706.04,-366.02 697.92,-359.21 695.45,-365.76"/>
</g>
<!-- p6_n16 -->
<g id="node3" class="node">
<title>p6_n16</title>
<ellipse fill="none" stroke="black" cx="682.05" cy="-306" rx="44.39" ry="18"/>
<text text-anchor="middle" x="682.05" y="-302.3" font-family="Times,serif" font-size="14.00">p6_n16</text>
</g>
<!-- p6_n16&#45;&gt;p0_n0 -->
<g id="edge2" class="edge">
<title>p6_n16&#45;&gt;p0_n0</title>
<path fill="none" stroke="black" d="M694.61,-323.59C701.14,-332.22 709.26,-342.94 716.5,-352.5"/>
<polygon fill="black" stroke="black" points="713.75,-354.67 722.58,-360.53 719.33,-350.44 713.75,-354.67"/>
</g>
<!-- p8_n20 -->
<g id="node4" class="node">
<title>p8_n20</title>
<ellipse fill="none" stroke="black" cx="789.05" cy="-306" rx="44.39" ry="18"/>
<text text-anchor="middle" x="789.05" y="-302.3" font-family="Times,serif" font-size="14.00">p8_n20</text>
</g>
<!-- p8_n20&#45;&gt;p0_n0 -->
<g id="edge3" class="edge">
<title>p8_n20&#45;&gt;p0_n0</title>
<path fill="none" stroke="black" d="M776.25,-323.59C769.59,-332.22 761.32,-342.94 753.94,-352.5"/>
<polygon fill="black" stroke="black" points="751.09,-350.47 747.75,-360.53 756.63,-354.75 751.09,-350.47"/>
</g>
<!-- r14_n23 -->
<g id="node5" class="node">
<title>r14_n23</title>
<ellipse fill="none" stroke="black" cx="900.05" cy="-306" rx="48.99" ry="18"/>
<text text-anchor="middle" x="900.05" y="-302.3" font-family="Times,serif" font-size="14.00">r14_n23</text>
</g>
<!-- r14_n23&#45;&gt;p0_n0 -->
<g id="edge4" class="edge">
<title>r14_n23&#45;&gt;p0_n0</title>
<path fill="none" stroke="black" d="M869.4,-320C841.85,-331.69 801.33,-348.88 772,-361.32"/>
<polygon fill="black" stroke="black" points="770.36,-358.22 762.52,-365.35 773.09,-364.66 770.36,-358.22"/>
</g>
<!-- p2_n2 -->
<g id="node6" class="node">
<title>p2_n2</title>
<ellipse fill="none" stroke="black" cx="518.05" cy="-234" rx="38.19" ry="18"/>
<text text-anchor="middle" x="518.05" y="-230.3" font-family="Times,serif" font-size="14.00">p2_n2</text>
</g>
<!-- p2_n2&#45;&gt;p1_n1 -->
<g id="edge5" class="edge">
<title>p2_n2&#45;&gt;p1_n1</title>
<path fill="none" stroke="black" d="M525.79,-251.95C529.49,-260.03 533.99,-269.88 538.11,-278.89"/>
<polygon fill="black" stroke="black" points="535.03,-280.57 542.37,-288.21 541.4,-277.66 535.03,-280.57"/>
</g>
<!-- p3_n3 -->
<g id="node7" class="node">
<title>p3_n3</title>
<ellipse fill="none" stroke="black" cx="367.05" cy="-162" rx="38.19" ry="18"/>
<text text-anchor="middle" x="367.05" y="-158.3" font-family="Times,serif" font-size="14.00">p3_n3</text>
</g>
<!-- p3_n3&#45;&gt;p2_n2 -->
<g id="edge6" class="edge">
<title>p3_n3&#45;&gt;p2_n2</title>
<path fill="none" stroke="black" d="M393.35,-175.19C418.07,-186.65 455.24,-203.88 482.57,-216.56"/>
<polygon fill="black" stroke="black" points="481.25,-219.8 491.79,-220.83 484.19,-213.45 481.25,-219.8"/>
</g>
<!-- r8_n14 -->
<g id="node8" class="node">
<title>r8_n14</title>
<ellipse fill="none" stroke="black" cx="466.05" cy="-162" rx="42.79" ry="18"/>
<text text-anchor="middle" x="466.05" y="-158.3" font-family="Times,serif" font-size="14.00">r8_n14</text>
</g>
<!-- r8_n14&#45;&gt;p2_n2 -->
<g id="edge7" class="edge">
<title>r8_n14&#45;&gt;p2_n2</title>
<path fill="none" stroke="black" d="M478.37,-179.59C484.72,-188.13 492.58,-198.72 499.63,-208.21"/>
<polygon fill="black" stroke="black" points="497.04,-210.59 505.81,-216.53 502.66,-206.42 497.04,-210.59"/>
</g>
<!-- r9_n15 -->
<g id="node9" class="node">
<title>r9_n15</title>
<ellipse fill="none" stroke="black" cx="570.05" cy="-162" rx="42.79" ry="18"/>
<text text-anchor="middle" x="570.05" y="-158.3" font-family="Times,serif" font-size="14.00">r9_n15</text>
</g>
<!-- r9_n15&#45;&gt;p2_n2 -->
<g id="edge8" class="edge">
<title>r9_n15&#45;&gt;p2_n2</title>
<path fill="none" stroke="black" d="M557.72,-179.59C551.38,-188.13 543.51,-198.72 536.46,-208.21"/>
<polygon fill="black" stroke="black" points="533.44,-206.42 530.28,-216.53 539.05,-210.59 533.44,-206.42"/>
</g>
<!-- p4_n4 -->
<g id="node10" class="node">
<title>p4_n4</title>
<ellipse fill="none" stroke="black" cx="129.05" cy="-90" rx="38.19" ry="18"/>
<text text-anchor="middle" x="129.05" y="-86.3" font-family="Times,serif" font-size="14.00">p4_n4</text>
</g>
<!-- p4_n4&#45;&gt;p3_n3 -->
<g id="edge9" class="edge">
<title>p4_n4&#45;&gt;p3_n3</title>
<path fill="none" stroke="black" d="M160.65,-100.3C203.06,-112.77 278.47,-134.95 325.45,-148.77"/>
<polygon fill="black" stroke="black" points="324.73,-152.2 335.31,-151.67 326.71,-145.49 324.73,-152.2"/>
</g>
<!-- p5_n7 -->
<g id="node11" class="node">
<title>p5_n7</title>
<ellipse fill="none" stroke="black" cx="268.05" cy="-90" rx="38.19" ry="18"/>
<text text-anchor="middle" x="268.05" y="-86.3" font-family="Times,serif" font-size="14.00">p5_n7</text>
</g>
<!-- p5_n7&#45;&gt;p3_n3 -->
<g id="edge10" class="edge">
<title>p5_n7&#45;&gt;p3_n3</title>
<path fill="none" stroke="black" d="M288.56,-105.5C302.9,-115.64 322.24,-129.32 338.14,-140.56"/>
<polygon fill="black" stroke="black" points="336.37,-143.6 346.56,-146.51 340.42,-137.88 336.37,-143.6"/>
</g>
<!-- r5_n11 -->
<g id="node12" class="node">
<title>r5_n11</title>
<ellipse fill="none" stroke="black" cx="367.05" cy="-90" rx="42.79" ry="18"/>
<text text-anchor="middle" x="367.05" y="-86.3" font-family="Times,serif" font-size="14.00">r5_n11</text>
</g>
<!-- r5_n11&#45;&gt;p3_n3 -->
<g id="edge11" class="edge">
<title>r5_n11&#45;&gt;p3_n3</title>
<path fill="none" stroke="black" d="M367.05,-108.3C367.05,-116.02 367.05,-125.29 367.05,-133.89"/>
<polygon fill="black" stroke="black" points="363.55,-133.9 367.05,-143.9 370.55,-133.9 363.55,-133.9"/>
</g>
<!-- r6_n12 -->
<g id="node13" class="node">
<title>r6_n12</title>
<ellipse fill="none" stroke="black" cx="471.05" cy="-90" rx="42.79" ry="18"/>
<text text-anchor="middle" x="471.05" y="-86.3" font-family="Times,serif" font-size="14.00">r6_n12</text>
</g>
<!-- r6_n12&#45;&gt;p3_n3 -->
<g id="edge12" class="edge">
<title>r6_n12&#45;&gt;p3_n3</title>
<path fill="none" stroke="black" d="M449.24,-105.67C433.93,-115.98 413.26,-129.9 396.48,-141.19"/>
<polygon fill="black" stroke="black" points="394.45,-138.34 388.11,-146.82 398.36,-144.14 394.45,-138.34"/>
</g>
<!-- r7_n13 -->
<g id="node14" class="node">
<title>r7_n13</title>
<ellipse fill="none" stroke="black" cx="575.05" cy="-90" rx="42.79" ry="18"/>
<text text-anchor="middle" x="575.05" y="-86.3" font-family="Times,serif" font-size="14.00">r7_n13</text>
</g>
<!-- r7_n13&#45;&gt;p3_n3 -->
<g id="edge13" class="edge">
<title>r7_n13&#45;&gt;p3_n3</title>
<path fill="none" stroke="black" d="M542.4,-101.69C499.02,-115.91 426.39,-139.74 414.05,-144 411.36,-144.93 408.58,-145.9 405.79,-146.89"/>
<polygon fill="black" stroke="black" points="404.58,-143.6 396.33,-150.26 406.93,-150.2 404.58,-143.6"/>
</g>
<!-- r0_n5 -->
<g id="node15" class="node">
<title>r0_n5</title>
<ellipse fill="none" stroke="black" cx="37.05" cy="-18" rx="37.09" ry="18"/>
<text text-anchor="middle" x="37.05" y="-14.3" font-family="Times,serif" font-size="14.00">r0_n5</text>
</g>
<!-- r0_n5&#45;&gt;p4_n4 -->
<g id="edge14" class="edge">
<title>r0_n5&#45;&gt;p4_n4</title>
<path fill="none" stroke="black" d="M56.11,-33.5C69.22,-43.48 86.84,-56.89 101.48,-68.02"/>
<polygon fill="black" stroke="black" points="99.61,-71 109.69,-74.27 103.85,-65.43 99.61,-71"/>
</g>
<!-- r1_n6 -->
<g id="node16" class="node">
<title>r1_n6</title>
<ellipse fill="none" stroke="black" cx="129.05" cy="-18" rx="37.09" ry="18"/>
<text text-anchor="middle" x="129.05" y="-14.3" font-family="Times,serif" font-size="14.00">r1_n6</text>
</g>
<!-- r1_n6&#45;&gt;p4_n4 -->
<g id="edge15" class="edge">
<title>r1_n6&#45;&gt;p4_n4</title>
<path fill="none" stroke="black" d="M129.05,-36.3C129.05,-44.02 129.05,-53.29 129.05,-61.89"/>
<polygon fill="black" stroke="black" points="125.55,-61.9 129.05,-71.9 132.55,-61.9 125.55,-61.9"/>
</g>
<!-- r2_n8 -->
<g id="node17" class="node">
<title>r2_n8</title>
<ellipse fill="none" stroke="black" cx="221.05" cy="-18" rx="37.09" ry="18"/>
<text text-anchor="middle" x="221.05" y="-14.3" font-family="Times,serif" font-size="14.00">r2_n8</text>
</g>
<!-- r2_n8&#45;&gt;p5_n7 -->
<g id="edge16" class="edge">
<title>r2_n8&#45;&gt;p5_n7</title>
<path fill="none" stroke="black" d="M231.95,-35.24C237.68,-43.77 244.83,-54.42 251.25,-63.98"/>
<polygon fill="black" stroke="black" points="248.4,-66.02 256.88,-72.37 254.21,-62.11 248.4,-66.02"/>
</g>
<!-- r3_n9 -->
<g id="node18" class="node">
<title>r3_n9</title>
<ellipse fill="none" stroke="black" cx="313.05" cy="-18" rx="37.09" ry="18"/>
<text text-anchor="middle" x="313.05" y="-14.3" font-family="Times,serif" font-size="14.00">r3_n9</text>
</g>
<!-- r3_n9&#45;&gt;p5_n7 -->
<g id="edge17" class="edge">
<title>r3_n9&#45;&gt;p5_n7</title>
<path fill="none" stroke="black" d="M302.38,-35.59C296.95,-44.05 290.22,-54.51 284.17,-63.92"/>
<polygon fill="black" stroke="black" points="281.1,-62.23 278.63,-72.53 286.99,-66.01 281.1,-62.23"/>
</g>
<!-- r4_n10 -->
<g id="node19" class="node">
<title>r4_n10</title>
<ellipse fill="none" stroke="black" cx="411.05" cy="-18" rx="42.79" ry="18"/>
<text text-anchor="middle" x="411.05" y="-14.3" font-family="Times,serif" font-size="14.00">r4_n10</text>
</g>
<!-- r4_n10&#45;&gt;p5_n7 -->
<g id="edge18" class="edge">
<title>r4_n10&#45;&gt;p5_n7</title>
<path fill="none" stroke="black" d="M384.15,-32.17C361.19,-43.4 328.02,-59.64 303.01,-71.89"/>
<polygon fill="black" stroke="black" points="301.3,-68.82 293.86,-76.36 304.38,-75.11 301.3,-68.82"/>
</g>
<!-- p7_n17 -->
<g id="node20" class="node">
<title>p7_n17</title>
<ellipse fill="none" stroke="black" cx="680.05" cy="-234" rx="44.39" ry="18"/>
<text text-anchor="middle" x="680.05" y="-230.3" font-family="Times,serif" font-size="14.00">p7_n17</text>
</g>
<!-- p7_n17&#45;&gt;p6_n16 -->
<g id="edge19" class="edge">
<title>p7_n17&#45;&gt;p6_n16</title>
<path fill="none" stroke="black" d="M680.54,-252.3C680.76,-260.02 681.03,-269.29 681.27,-277.89"/>
<polygon fill="black" stroke="black" points="677.77,-278 681.56,-287.9 684.77,-277.8 677.77,-278"/>
</g>
<!-- r10_n18 -->
<g id="node21" class="node">
<title>r10_n18</title>
<ellipse fill="none" stroke="black" cx="680.05" cy="-162" rx="48.99" ry="18"/>
<text text-anchor="middle" x="680.05" y="-158.3" font-family="Times,serif" font-size="14.00">r10_n18</text>
</g>
<!-- r10_n18&#45;&gt;p7_n17 -->
<g id="edge20" class="edge">
<title>r10_n18&#45;&gt;p7_n17</title>
<path fill="none" stroke="black" d="M680.05,-180.3C680.05,-188.02 680.05,-197.29 680.05,-205.89"/>
<polygon fill="black" stroke="black" points="676.55,-205.9 680.05,-215.9 683.55,-205.9 676.55,-205.9"/>
</g>
<!-- r11_n19 -->
<g id="node22" class="node">
<title>r11_n19</title>
<ellipse fill="none" stroke="black" cx="795.05" cy="-162" rx="48.99" ry="18"/>
<text text-anchor="middle" x="795.05" y="-158.3" font-family="Times,serif" font-size="14.00">r11_n19</text>
</g>
<!-- r11_n19&#45;&gt;p7_n17 -->
<g id="edge21" class="edge">
<title>r11_n19&#45;&gt;p7_n17</title>
<path fill="none" stroke="black" d="M770.94,-177.67C753.96,-188.01 731.03,-201.96 712.45,-213.27"/>
<polygon fill="black" stroke="black" points="710.45,-210.4 703.73,-218.58 714.09,-216.37 710.45,-210.4"/>
</g>
<!-- r12_n21 -->
<g id="node23" class="node">
<title>r12_n21</title>
<ellipse fill="none" stroke="black" cx="791.05" cy="-234" rx="48.99" ry="18"/>
<text text-anchor="middle" x="791.05" y="-230.3" font-family="Times,serif" font-size="14.00">r12_n21</text>
</g>
<!-- r12_n21&#45;&gt;p8_n20 -->
<g id="edge22" class="edge">
<title>r12_n21&#45;&gt;p8_n20</title>
<path fill="none" stroke="black" d="M790.55,-252.3C790.33,-260.02 790.07,-269.29 789.82,-277.89"/>
<polygon fill="black" stroke="black" points="786.32,-277.8 789.54,-287.9 793.32,-278 786.32,-277.8"/>
</g>
<!-- r13_n22 -->
<g id="node24" class="node">
<title>r13_n22</title>
<ellipse fill="none" stroke="black" cx="906.05" cy="-234" rx="48.99" ry="18"/>
<text text-anchor="middle" x="906.05" y="-230.3" font-family="Times,serif" font-size="14.00">r13_n22</text>
</g>
<!-- r13_n22&#45;&gt;p8_n20 -->
<g id="edge23" class="edge">
<title>r13_n22&#45;&gt;p8_n20</title>
<path fill="none" stroke="black" d="M881.52,-249.67C864.17,-260.06 840.71,-274.09 821.76,-285.43"/>
<polygon fill="black" stroke="black" points="819.93,-282.45 813.14,-290.58 823.52,-288.45 819.93,-282.45"/>
</g>
</g>
</svg>
